<svg width="61" height="48" viewBox="0 0 61 48" fill="none" xmlns="http://www.w3.org/2000/svg">
    <rect x="9.443" y="17.169" width="40.347" height="30.046" rx="5" fill="#F19F00"/>
    <path fill-rule="evenodd" clip-rule="evenodd" d="M33.13 1.149A4.114 4.114 0 0 0 30.283 0a4.096 4.096 0 0 0-2.861 1.12l-8.26 8.056a2 2 0 0 1-1.396.568h-4.39a2 2 0 0 0-2 2v4.181a2 2 0 0 1-.604 1.432L.063 27.8c-.135.13-.037.35.154.353l10.077.04a.218.218 0 0 0 .154-.061l11.388-10.844c1.385 1.057 3.146 2.323 3.846 2.556.788.263 2.11.17 3.363.083.603-.042 1.19-.083 1.695-.083 1.065 0 5.767-1.091 8.51-1.782l10.331 10.041c.042.04.096.062.155.062l10.137.014c.192 0 .29-.22.157-.351l-26.9-26.68zm4.6 25.221c0-3.041-3.13-5.506-6.987-5.506-3.86 0-6.986 2.465-6.986 5.506 0 .21.017.414.045.618h-.045v6.563h13.975v-6.563h-.046c.026-.204.043-.409.043-.618z" fill="#F19F00"/>
</svg>
