<svg width="61" height="48" viewBox="0 0 61 48" fill="none" xmlns="http://www.w3.org/2000/svg">
    <path fill-rule="evenodd" clip-rule="evenodd" d="M30.282 0a4.114 4.114 0 0 1 2.849 1.149l26.899 26.68c.133.13.035.351-.157.351l-10.083-.014v14.048a5 5 0 0 1-5 5H14.443a5 5 0 0 1-5-5V28.191l-9.226-.037c-.191-.002-.29-.223-.154-.354L10.77 17.358a2 2 0 0 0 .603-1.432v-4.18a2 2 0 0 1 2-2h4.39a2 2 0 0 0 1.397-.57l8.26-8.055A4.096 4.096 0 0 1 30.282 0z" fill="url(#hjupfdmuoa)"/>
    <defs>
        <linearGradient id="hjupfdmuoa" x1="30.046" y1="0" x2="28.837" y2="60.381" gradientUnits="userSpaceOnUse">
            <stop stop-color="#1860EC"/>
            <stop offset="1" stop-color="#26CBFF"/>
        </linearGradient>
    </defs>
</svg>
